:SAMPLES-PER-SECOND 30
:FULLY-SPECIFIED
:DEGREES
400
root  -1.27356 38.0513 15.1938 -175.071 -51.1243 176.755
RightUpLeg  -2.12832 0.56689 -14.8187
RightLeg  28.2112 -0.845032 -0.725151
RightFoot  -12.0933 0.0956687 26.7775
RightToes  -1.39699e-009 0 -3.6325e-017
Spine  13.3533 2.20509 -0.247974
Spine1  19.4456 -2.38225 12.7148
HEad  -2.30608 -26.1224 4.23093
LeftShoulder1  0.993099 -3.19333 -7.22149
LeftArm  14.1971 -30.9735 -71.9336
LeftForeArm  48.6222 -78.2182 -89.6554
LeftHand  -0.689853 2.43731 26.8667
RightShoulder  1.86527 5.58471 13.6142
RightArm  16.9307 -8.09442 51.4262
RightForeArm  75.0965 73.1544 133.846
RightHand  -0.496951 -1.45123 -14.542
LeftUpLeg  -27.5714 -8.99517 3.29188
LeftLeg  23.3139 -6.45548 -2.71155
LeftFoot  -0.429702 0.81175 -8.46293
LeftToes  3.40148e-010 1.80944e-010 1.01921e-010
401
root  -1.34242 38.1698 15.2568 -174.975 -50.4877 176.875
RightUpLeg  -1.85897 0.746717 -14.9553
RightLeg  26.7201 -0.734924 -0.631758
RightFoot  -11.4531 -0.0523573 26.623
RightToes  -1.39699e-009 0 -3.6325e-017
Spine  13.011 2.469 -0.608796
Spine1  19.7491 -2.17394 12.716
HEad  -0.388984 -24.6117 4.29832
LeftShoulder1  0.979656 -3.02476 -7.41962
LeftArm  12.2565 -31.1957 -72.8295
LeftForeArm  58.339 -77.805 -102.946
LeftHand  -0.532803 3.05664 26.2117
RightShoulder  1.85384 5.48756 13.7189
RightArm  16.3218 -8.21793 51.4278
RightForeArm  76.4811 72.9368 134.689
RightHand  -0.47152 -1.51748 -14.0226
LeftUpLeg  -27.0244 -8.88908 3.31847
LeftLeg  22.0775 -5.96449 -2.32727
LeftFoot  -0.0765694 0.850228 -8.60648
LeftToes  3.40148e-010 1.80944e-010 1.01921e-010
402
root  -1.41791 38.268 15.3166 -174.85 -50.1796 177.052
RightUpLeg  -1.50221 0.625902 -15.0383
RightLeg  25.1854 -0.591785 -0.528686
RightFoot  -10.9129 -0.175929 26.5352
RightToes  -1.39699e-009 0 -3.6325e-017
Spine  12.7197 2.65104 -0.855021
Spine1  19.8779 -2.04858 12.7999
HEad  0.318857 -24.1197 4.45202
LeftShoulder1  0.966329 -2.84829 -7.651
LeftArm  10.4201 -31.3636 -73.6601
LeftForeArm  65.051 -76.8601 -114.146
LeftHand  -0.298049 4.03353 25.1622
RightShoulder  1.86957 5.50347 13.8714
RightArm  15.5831 -8.39941 51.4235
RightForeArm  77.3027 72.8736 134.968
RightHand  -0.480329 -1.42914 -13.9739
LeftUpLeg  -26.668 -9.03646 3.40311
LeftLeg  20.9901 -5.52856 -2.01028
LeftFoot  0.17638 0.893795 -8.862
LeftToes  3.40148e-010 1.80944e-010 1.01921e-010
403
root  -1.50359 38.3529 15.3747 -174.769 -50.1358 177.302
RightUpLeg  -1.04988 0.373521 -15.0245
RightLeg  23.6675 -0.616834 -0.517655
RightFoot  -10.382 -0.296406 26.4311
RightToes  -1.39699e-009 0 -3.6325e-017
Spine  12.5458 2.75322 -0.87341
Spine1  19.8077 -1.93966 12.8455
HEad  -0.074602 -24.6989 4.71867
LeftShoulder1  0.974829 -2.79598 -7.9427
LeftArm  9.16095 -31.3779 -74.4395
LeftForeArm  67.7678 -76.1023 -119.876
LeftHand  -0.143317 4.72256 24.3671
RightShoulder  1.90801 5.5902 14.119
RightArm  14.8749 -8.73459 51.4059
RightForeArm  77.5836 72.7961 135.238
RightHand  -0.493459 -1.33052 -14.0208
LeftUpLeg  -26.4299 -9.16248 3.49532
LeftLeg  20.0727 -5.34624 -1.8343
LeftFoot  0.368407 0.937352 -9.1503
LeftToes  3.40148e-010 1.80944e-010 1.01921e-010
404
root  -1.58824 38.4258 15.4252 -174.702 -50.2853 177.58
RightUpLeg  -0.566654 0.0966806 -14.937
RightLeg  22.2383 -0.801844 -0.579411
RightFoot  -9.87639 -0.410777 26.3693
RightToes  -1.39699e-009 0 -3.6325e-017
Spine  12.3563 2.88631 -0.757572
Spine1  19.7475 -1.79209 12.9311
HEad  -1.51738 -26.5255 5.25101
LeftShoulder1  1.00654 -2.90682 -8.19784
LeftArm  8.74329 -31.3724 -75.364
LeftForeArm  65.2087 -76.2059 -118.718
LeftHand  -0.135822 4.75382 24.1084
RightShoulder  1.94055 5.62872 14.4146
RightArm  14.1968 -9.14576 51.406
RightForeArm  77.7718 72.8155 135.195
RightHand  -0.527978 -1.08578 -14.1734
LeftUpLeg  -26.3133 -9.15299 3.56431
LeftLeg  19.3356 -5.46052 -1.8004
LeftFoot  0.54296 0.967077 -9.30975
LeftToes  3.40148e-010 1.80944e-010 1.01921e-010
405
root  -1.66431 38.4807 15.4615 -174.544 -50.6523 177.794
RightUpLeg  -0.115112 -0.315651 -14.8527
RightLeg  20.9665 -0.984338 -0.6351
RightFoot  -9.47661 -0.502534 26.4248
RightToes  -1.39699e-009 0 -3.6325e-017
Spine  12.0254 3.07834 -0.669021
Spine1  19.7944 -1.65711 13.1785
HEad  -3.92099 -29.6022 6.09569
LeftShoulder1  1.03874 -3.05641 -8.34741
LeftArm  9.37457 -31.3648 -76.5145
LeftForeArm  55.4716 -77.0234 -110.44
LeftHand  -0.211014 4.40869 24.4807
RightShoulder  1.94439 5.5663 14.6223
RightArm  13.5795 -9.56444 51.4233
RightForeArm  78.1509 72.9142 134.923
RightHand  -0.597719 -0.671795 -14.6773
LeftUpLeg  -26.3676 -9.17028 3.59516
LeftLeg  18.7793 -5.73898 -1.84583
LeftFoot  0.708236 0.984452 -9.35458
LeftToes  3.40148e-010 1.80944e-010 1.01921e-010
406
root  -1.73698 38.5155 15.4908 -174.32 -51.2196 177.87
RightUpLeg  0.329624 -1.0181 -14.8576
RightLeg  19.9573 -0.998729 -0.668267
RightFoot  -9.17267 -0.573669 26.5223
RightToes  -1.39699e-009 0 -3.6325e-017
Spine  11.7492 3.22219 -0.596971
Spine1  19.8089 -1.5915 13.4605
HEad  -7.14836 -33.5353 7.1679
LeftShoulder1  1.06341 -3.15306 -8.50492
LeftArm  11.0471 -31.223 -77.6372
LeftForeArm  39.6889 -77.6913 -96.8883
LeftHand  -0.283813 4.11393 25.4673
RightShoulder  1.93348 5.49397 14.6786
RightArm  13.1137 -9.95088 51.422
RightForeArm  78.8187 72.9274 134.949
RightHand  -0.669309 -0.293436 -15.2487
LeftUpLeg  -26.484 -9.33467 3.53288
LeftLeg  18.3806 -6.03218 -1.90948
LeftFoot  0.852795 1.00726 -9.46358
LeftToes  3.40148e-010 1.80944e-010 1.01921e-010
